<svg xmlns="http://www.w3.org/2000/svg" width="311.55" height="62.01" viewBox="0 0 311.55 62.01"><defs><style>.cls-1{fill:#231f20;}.cls-2{font-size:24px;fill:#fff;font-family:CenturyGothic, Century Gothic;}.cls-3{fill:#c92227;}</style></defs><title>Asset 1</title><g id="Layer_2" data-name="Layer 2"><g id="Layer_1-2" data-name="Layer 1"><rect class="cls-1" y="4.85" width="277.78" height="53.33" rx="12"/><text class="cls-2" transform="translate(13 38.67)">Mama&apos;s Troubadour</text><path class="cls-1" d="M256.5,19.77a23.29,23.29,0,0,1,3.38-14.24,23.5,23.5,0,0,1,3.19-4.3A3.52,3.52,0,0,1,265.34,0a3.13,3.13,0,0,1,2.6.92.51.51,0,0,1,.15.21,8.15,8.15,0,0,0,2,2.55,2.1,2.1,0,0,0,.57.32,34.71,34.71,0,0,1,4,2.16,3.1,3.1,0,0,1,1.25,1.13c.06.11.15.07.23.05A10,10,0,0,0,280.77,5a5.05,5.05,0,0,0,1.54-2.84c0-.22.09-.29.32-.17a6.46,6.46,0,0,1,3.58,4.6.55.55,0,0,0,.35.45c.51.22,1,.47,1.49.7a4.81,4.81,0,0,0,1.35.47,3.7,3.7,0,0,1,2.33,1.42.38.38,0,0,0,.49.12,7.49,7.49,0,0,1,6,.49,13.84,13.84,0,0,1,4.9,4.35,12.34,12.34,0,0,1,2.33,4.95,8.21,8.21,0,0,1-.44,5.06.83.83,0,0,0-.07.38c0,1.31,0,2.61,0,3.92,0,.26.08.3.31.3a8.73,8.73,0,0,1,3.57.64,4.36,4.36,0,0,1,2.67,3.77,9.82,9.82,0,0,1-1,5.33,25.2,25.2,0,0,1-4.61,6.89A11.52,11.52,0,0,1,300.78,49a5.18,5.18,0,0,1-1.52.23c-.18,0-.26,0-.23.24a19.75,19.75,0,0,1,.08,4.21,13.2,13.2,0,0,1-.91,4,6.43,6.43,0,0,1-4.83,4,20.15,20.15,0,0,1-5.8.3,48.35,48.35,0,0,1-9.23-1.68,2.09,2.09,0,0,0-.93.09,28.71,28.71,0,0,1-6.87.13A22.65,22.65,0,0,1,264,59a15.27,15.27,0,0,1-5.86-4.08,10.54,10.54,0,0,1-2.33-5,22.28,22.28,0,0,1-.15-7.15,20.73,20.73,0,0,1,.33-2.07c.06-.23,0-.32-.22-.42a21.87,21.87,0,0,1-6.63-4.72,15.17,15.17,0,0,1-4-7.3,9.34,9.34,0,0,1,1.52-7.81,7.42,7.42,0,0,1,2.8-2.35,5.35,5.35,0,0,1,5.13.3,8.21,8.21,0,0,1,1.71,1.28C256.37,19.7,256.41,19.77,256.5,19.77Zm11.77-1.84a.9.9,0,0,1,0,.36,3.64,3.64,0,0,0-.2.88,16.17,16.17,0,0,0-.32,1.95c-.11.91-.2,1.82-.29,2.73,0,.44.15.86.13,1.3a12.14,12.14,0,0,0,.26,2.17c.13,1,.38,2,.47,3.06.07.8.08.8.93.93.15,0,.27.09.25.28a.69.69,0,0,0,.24.52,1.19,1.19,0,0,1,.35.65.47.47,0,0,0,.2.29s.1.08.13.07.06-.1.07-.17a17.64,17.64,0,0,1,.11-2.51c.08-.47.14-1,.21-1.42a18,18,0,0,1,1.1-3.8,7.2,7.2,0,0,1,.79-1.77A7.55,7.55,0,0,0,274,19.5c.05-.42,0-.85,0-1.26a6.48,6.48,0,0,0-.07-1.4,4.86,4.86,0,0,1,.25-2.8,10.14,10.14,0,0,1,.43-1.16A12.41,12.41,0,0,1,276,11.09a20.35,20.35,0,0,1,2-2c.6-.51,1.21-1,1.79-1.54a1.85,1.85,0,0,0,.55-.92,12.15,12.15,0,0,0-1.63.72,18.63,18.63,0,0,0-2.34,1.34,22,22,0,0,0-4.65,3.72c-.21.24-.64.35-.57.81,0,.06-.07.07-.12.07s-.18.1-.26.17c-.23.17-.29.47-.54.63a1,1,0,0,0-.31.37c-.17.35-.48.62-.56,1,0,.17-.27.14-.27.3,0,.35-.53.46-.39.87a.07.07,0,0,1,0,.05c-.32.29-.29.7-.37,1.07,0,0-.1,0-.1.05S268.22,17.92,268.27,17.93Zm25.47,31.51h-1a7,7,0,0,1-2.8-.54,10.36,10.36,0,0,1-1.89-1.06,22.18,22.18,0,0,1-1.93-1.58c-.82-.73-1.7-1.4-2.52-2.15-.67-.61-1.31-1.26-2-1.9-.8-.79-1.58-1.61-2.33-2.45a7.2,7.2,0,0,0-1.88-1.68,17.11,17.11,0,0,0-2.05-.92,14.16,14.16,0,0,0-3.76-.85c-.5,0-1,0-1.5,0a11.63,11.63,0,0,0-2.21.17c-.14,0-.18.12-.13.21a1.2,1.2,0,0,1,.06.89c0,.11-.05.25,0,.32s.14.33.14.51c0,.34,0,.68,0,1,0,.07,0,.2,0,.22.39.2.3.69.63,1a2.84,2.84,0,0,1,.78,1.46c.12.51.07,1,.2,1.51a2.25,2.25,0,0,1-.23,1.19c-.05.18,0,.38-.14.54s-.14.58-.14.88a.2.2,0,0,0,.2.22c.28,0,.28.19.33.39s0,.49.19.64a4.86,4.86,0,0,1,.58.53.77.77,0,0,0,.6.27c.16,0,.41,0,.28.33a.16.16,0,0,0,.1.22c.27.08.47.33.79.27a.34.34,0,0,1,.27.09.65.65,0,0,0,.44.18c.23,0,.47,0,.56.33a.46.46,0,0,0,.36.32,9.14,9.14,0,0,1,1.36.38,1.57,1.57,0,0,1,.52.08,4.74,4.74,0,0,0,2.51.58c3.23,0,6.46,0,9.69,0a1.24,1.24,0,0,0,.42-.11,2.63,2.63,0,0,1,.86-.28c.11,0,.24,0,.21.16s0,.22.22.15.43-.29.67-.1.31.07.48,0c.7-.31,1.4-.63,2.13-.91A1.48,1.48,0,0,0,293.74,49.44ZM265.3,4.61c.13-.06.23.2.32,0a4,4,0,0,0,.26-1,.77.77,0,0,1,.33-.68c.12-.08.07-.21,0-.21-.43,0-.35-.39-.39-.6a.79.79,0,0,0-1.16-.54,3.28,3.28,0,0,0-.71.63A18.72,18.72,0,0,0,262.71,4c-1,1.59-2.35,3-3,4.73a17.56,17.56,0,0,0-.88,2.32,21.05,21.05,0,0,0-.53,5.54,12.16,12.16,0,0,0,.5,3.06A19.56,19.56,0,0,0,260,23a33.33,33.33,0,0,0,1.61,3.15c.64,1,1.07,2.18,1.64,3.25.39.74.71,1.52,1.05,2.29a12.59,12.59,0,0,1,.74,1.91,6.24,6.24,0,0,1,.3.86.21.21,0,0,0,.19.19.15.15,0,0,0,.11-.06c.07-.12,0-.17-.11-.24s-.18-.25-.05-.34.18-.27.06-.44a.45.45,0,0,1-.05-.26c0-.48.22-1,0-1.44a.28.28,0,0,1,0-.19,1,1,0,0,0,.09-.48,5.94,5.94,0,0,0-.12-.86,13,13,0,0,0-.4-3c-.2-.74-.11-1.52-.31-2.28s0-1.47-.28-2.18a1.28,1.28,0,0,1,0-.86c.13-.39-.09-.78-.16-1.17-.12-.75-.18-1.5-.33-2.25-.21-1-.07-2.11-.26-3.15a4.83,4.83,0,0,1,0-1.42,12.25,12.25,0,0,1,.15-1.46,4.09,4.09,0,0,0,.12-1.32,2.16,2.16,0,0,1,.14-1.35,1,1,0,0,0,.09-.93c-.06-.14-.11-.33,0-.41.33-.25.27-.53.14-.83,0,0-.06-.11,0-.15s.1,0,.14,0,.13,0,.2,0,0-.11,0-.17a.53.53,0,0,1,0-.41c.06-.32.11-.65.18-1a1.47,1.47,0,0,1,.21-.65A.76.76,0,0,0,265.3,4.61Zm31.77,33c.1.44.17.53.28.43s.46-.26.62-.5a11.43,11.43,0,0,0,1.36-2.76c0-.07.06-.15,0-.21s-.16,0-.24,0a12.72,12.72,0,0,1-4,.79,25.17,25.17,0,0,1-3.13,0,16.07,16.07,0,0,1-4.56-.81,11.64,11.64,0,0,1-3.09-1.5,9.33,9.33,0,0,0-1.69-1c-1.23-.56-2.53-.93-3.77-1.44a23.92,23.92,0,0,1-6.39-3.72c-.15-.12-.19-.06-.26.07a3.68,3.68,0,0,0-.31.86,10.29,10.29,0,0,0-.65,3.56,9.4,9.4,0,0,1,0,1.3,2.68,2.68,0,0,0,.2.88c0,.05,0,.12.09.11a.16.16,0,0,0,.1-.08c.1-.4.45-.59.69-.86a1.27,1.27,0,0,1,1.53-.32c.39.16.77.3,1.17.43.19.06.37.23.56.25a10.57,10.57,0,0,1,2.53.83,3.4,3.4,0,0,1,1.45.85c.27.3.77.23,1,.62s.81.48,1.11.88a11.2,11.2,0,0,0,1,.91c.33.33.83.45,1.15.82a.81.81,0,0,0,.24.17,7.91,7.91,0,0,1,1.65.94,2,2,0,0,0,.94.46l.18.06c.29.07.57.15.86.19.51.07,1-.19,1.52-.15a.49.49,0,0,0,.25-.08,4.49,4.49,0,0,1,.89-.32c.14,0,.31-.07.11-.26s-.05-.14,0-.2a.88.88,0,0,1,.52-.25.6.6,0,0,0,.48-.16.54.54,0,0,1,.45-.16c1,0,1.93,0,2.9,0a5.21,5.21,0,0,0,1.84-.24A.46.46,0,0,0,297.07,37.64ZM258.34,20.77c-.23.16-.19.39-.23.56-.23.93-.92,1.68-1.05,2.66a9.3,9.3,0,0,1-.31,1,16.24,16.24,0,0,0-.39,1.64c-.07.56-.22,1.1-.25,1.67a10.41,10.41,0,0,0,.16,3,4,4,0,0,1,.28,1.23s0,.07.06.11a13.38,13.38,0,0,1,.56,1.49,2.29,2.29,0,0,0,.29.82,3.36,3.36,0,0,1,.51,1,11.64,11.64,0,0,0,.66,1.18,4.67,4.67,0,0,0,.91,1.31c.28.26.31.68.6.92a1.43,1.43,0,0,1,.35.3c.17.32.28.7.71.78,0,0,.05,0,.07.07a3.67,3.67,0,0,0,.71.71,6.17,6.17,0,0,0,1.63,1.13,1.37,1.37,0,0,1,.78.8,2.75,2.75,0,0,1,.18.86,7.6,7.6,0,0,0,0,1.17,1.28,1.28,0,0,1,0,.75c-.07.18.22.18.33.29s.22,0,.28-.06a10.31,10.31,0,0,0,1.43-2.38,1.3,1.3,0,0,0-.2-1c-.13-.24-.42-.39-.36-.73,0-.09-.1-.11-.14-.17a2.91,2.91,0,0,1-.5-1.19c-.06-.27.07-.6-.31-.74-.08,0-.08-.14-.11-.23a5.91,5.91,0,0,1-.26-2.13c0-.11,0-.23-.05-.32-.45-.43-.31-1-.41-1.55a2.23,2.23,0,0,0-.17-.71,3.09,3.09,0,0,1-.36-.91,2.23,2.23,0,0,0-.33-1c-.14-.19-.08-.44-.18-.64a16,16,0,0,1-.89-2.46c-.06-.22-.06-.52-.35-.66-.11,0-.12-.2-.17-.31-.16-.33-.11-.74-.37-1a1.07,1.07,0,0,1-.22-.32c-.11-.32-.08-.7-.4-.93-.1-.07-.11-.23-.12-.37a2.18,2.18,0,0,0-.21-.7,6.79,6.79,0,0,1-.44-.9c-.17-.62-.45-1.2-.65-1.81C259.12,22.22,258.6,21.58,258.34,20.77Zm18.93,37.57a.49.49,0,0,0-.08-.19l-1.05-1.25a4.14,4.14,0,0,0-1.26-1c-.38-.19-.61-.72-1.15-.62,0,0,0,0,0,0a7.27,7.27,0,0,0-1.33-.76,2.63,2.63,0,0,1-.9-.45c-.6-.47-1.13-1-1.77-1.46-.34-.24-.68-.49-1-.75s-.86-.52-1.26-.83-.42-.53-.68-.63a12.74,12.74,0,0,1-1.67-1.11,7.57,7.57,0,0,1-1.2-.93,3.42,3.42,0,0,1-.74-.73c-.22-.33-.56-.54-.73-.9-.07-.15-.28-.06-.33-.23s-.56-.37-.56-.76c0,0-.06,0-.09,0s-.17-.13-.23-.23-.13-.38-.35-.47a.1.1,0,0,1,0-.16c.2-.25,0-.33-.17-.46a2.84,2.84,0,0,1-.51-.53.69.69,0,0,0-.81-.41c-.14,0-.27,0-.27-.18s.05-.2,0-.23-.13.12-.16.2a.62.62,0,0,0-.1.24c0,.62-.39,1.15-.39,1.8s0,1.46,0,2.2.16,1.34.17,2a4.71,4.71,0,0,0,1.27,3.1.63.63,0,0,1,.2.32,2,2,0,0,0,.63,1,21,21,0,0,0,2.1,1.5c.13.08.32.09.39.23.25.51.78.52,1.22.7s1.07.36,1.59.59c.24.1.43.33.72.15,0,0,.11,0,.16,0a5.68,5.68,0,0,0,2.23.4c.72.07,1.44,0,2.16.07a25.89,25.89,0,0,1,2.6.3,11.87,11.87,0,0,0,2.23.42Zm-22-20.21a4,4,0,0,1-.78-1.24c-.31-.6-.53-1.25-.79-1.88a4,4,0,0,1-.3-.58c-.15-.53-.32-1.06-.47-1.6a5.79,5.79,0,0,1-.28-1.61,12.76,12.76,0,0,0-.19-1.84,10.55,10.55,0,0,1-.14-2.11A5.91,5.91,0,0,1,253,25c.21-.43.52-.82.7-1.27a.59.59,0,0,1,.1-.17,8.24,8.24,0,0,0,.74-1.11c0-.09.09-.24.25-.22a2.07,2.07,0,0,1,.84.89c0,.08-.12.2.07.21s.19-.09.2-.21a2.28,2.28,0,0,0-.16-1.52,4.89,4.89,0,0,0-2.14-1.67,5.64,5.64,0,0,0-1.87-.56,3.69,3.69,0,0,0-4,1.81,8,8,0,0,0-1,3.29A10.94,10.94,0,0,0,247,28a13.45,13.45,0,0,0,2.42,5.21,15.58,15.58,0,0,0,3,3.08c.67.52,1.35,1,2.06,1.49A1.47,1.47,0,0,0,255.24,38.13Zm34.26,17.6.19.13a.35.35,0,0,1,.17.45c-.06.19-.13.36-.41.39a2.63,2.63,0,0,0-.93.35,2.84,2.84,0,0,1-2.11.25c-.51-.09-1-.16-1.52-.21-.26,0-.56.07-.71-.26,0,0-.09-.06-.14-.07-.38-.08-.75-.13-1.13-.19a8,8,0,0,1-2.4-.87c-.19-.09-.35-.28-.59-.1-.06,0-.11,0-.17-.05-.3-.19-.54-.53-1-.39a.24.24,0,0,1-.17-.09c-.25-.33-.72-.28-1-.59a.21.21,0,0,0-.12,0,1.73,1.73,0,0,1-1-.45c-.19-.15-.4-.31-.68-.13s-.2,0-.19-.15.11-.2,0-.25a.27.27,0,0,0-.3.09c-.12.15-.28.13-.32-.05s-.17-.18-.32-.18h-.56c-.12,0-.29-.06-.36.09s.1.25.19.34c.67.68,1.42,1.27,2.12,1.9s1.47,1.24,2.23,1.81a16.44,16.44,0,0,0,3.35,1.88,15.2,15.2,0,0,0,5.17,1.26,18.24,18.24,0,0,0,3.54-.09,10.47,10.47,0,0,0,3.8-1.18,6.52,6.52,0,0,0,3.26-4.18,14.12,14.12,0,0,0,.28-4,5,5,0,0,0-.08-1.07.21.21,0,0,0-.1.2c0,.63-.08,1.25-.11,1.87,0,.3-.19.55-.21.83a2.49,2.49,0,0,1-.15.73c-.17.47-.27.51-.7.26l-.18-.09a1,1,0,0,0-1.23.1,1.06,1.06,0,0,1-.83.37c-.64,0-1.26.17-1.9.14-.08,0-.17,0-.19.1s.1.08.17.1l.25.05c.22,0,.43.08.42.37s-.2.35-.42.38a11.61,11.61,0,0,1-1.86.19C290.21,55.64,289.9,55.7,289.5,55.73Zm2.41-21c.33.05.63-.1.95-.08a.3.3,0,0,0,.3-.33c0-.1,0-.21,0-.32s-.05-.23-.22-.18a2.55,2.55,0,0,1-.67.12,7.89,7.89,0,0,1-3.73-.76,12.29,12.29,0,0,1-6.22-5.92,7.46,7.46,0,0,0-.45-.84,15,15,0,0,0-1.56-2,10,10,0,0,0-2-1.84c-.62-.39-1.31-.66-1.93-1s-.49-.24-.94.14-.36.84-.71,1.15c0,0,0,.06,0,.09.11.63-.31,1.1-.53,1.61a4.35,4.35,0,0,0-.4,1.36.74.74,0,0,0,.44.87c.14.06.21.23.34.31.33.21.49.63.9.73a4.1,4.1,0,0,1,.5.14,12.32,12.32,0,0,0,1.8.94c.07,0,.12.1.19.13a3.3,3.3,0,0,0,1.61.68c.13,0,.17.09.21.18a.36.36,0,0,0,.35.21,2.24,2.24,0,0,1,.37.1c.51.11.88.51,1.38.65.18.05.44,0,.53.19a1.07,1.07,0,0,0,.69.45,16.48,16.48,0,0,1,2,1.06c.2.09.52-.11.61.24l.12,0c.07,0,.14,0,.15.09,0,.23.16.16.29.1s.23-.12.24.07.17.24.35.28.45-.08.42.28c0,.1.12.09.21,0a.54.54,0,0,1,.63.09c.26.2.5.48.91.38a.37.37,0,0,1,.33.11c.22.33.6.31.9.38A13,13,0,0,0,291.91,34.69Zm11.52-10.32a.79.79,0,0,0,.26-.33,7,7,0,0,0,.39-4.5,11.1,11.1,0,0,0-1.35-3.31,12.71,12.71,0,0,0-2.64-3.2c-.13-.12-.28-.37-.46-.24s.17.25.3.35a.17.17,0,0,1,.07.1c0,.07-.06.07-.12.08s-.21,0-.23.12a.23.23,0,0,0,.17.25c.22.1.16.41.38.52s0,.14-.07.18c-.27.16-1.15,0-1.26-.34s-.33-.19-.52-.2a.38.38,0,0,0-.44.26.39.39,0,0,1-.35.34c-.13,0-.23.09-.19.25s0,.18-.09.2-.19,0-.21-.14-.19-.23-.36-.08-.12.48,0,.7a8.55,8.55,0,0,1,1,2.26,3.28,3.28,0,0,1-.05,2.25c-.23.53-.16.72.38.94a1,1,0,0,0,.34.11.86.86,0,0,1,.64.46c.18.42.6.5.89.71a4.82,4.82,0,0,1,1,.9c.26.37.44.8.72,1.13s.32,1,.44,1.5-.06,1,0,1.46a.26.26,0,0,1-.07.28.94.94,0,0,0-.29.91,11.64,11.64,0,0,0,.23,1.29,1.19,1.19,0,0,1-.08,1c0,.06-.07.12,0,.18a.18.18,0,0,0,.19,0,.39.39,0,0,0,.19-.17,5.35,5.35,0,0,0,.88-1.71,6.34,6.34,0,0,0,.26-2.37,4.8,4.8,0,0,0-.77-2.51,11.42,11.42,0,0,0-3.08-3c-.28-.19-.39-.4-.25-.62s.41-.13.6,0A9.14,9.14,0,0,1,302.78,23,6.55,6.55,0,0,1,303.43,24.37ZM282.92,3.67A6.29,6.29,0,0,1,282.51,5a16.38,16.38,0,0,1-4,5,20.27,20.27,0,0,0-2.9,3,3.81,3.81,0,0,0-.84,2.59c.07.91.1,1.83.15,2.75,0,.25.18.26.31.2a2.67,2.67,0,0,1,.61-.24c.07,0,.1-.1.14-.17a2.56,2.56,0,0,1,.94-1.07c.06,0,.15-.06.16-.15,0-.36.34-.53.54-.78.51-.65,1.27-1.09,1.64-1.86a.57.57,0,0,1,.27-.28,2.5,2.5,0,0,0,.91-1.08,6.12,6.12,0,0,1,.53-.7,12.57,12.57,0,0,0,1.25-1.58,6.15,6.15,0,0,1,1-1.29c.41-.39.88-.71,1.29-1.11a1.16,1.16,0,0,0,.28-1.13,5.36,5.36,0,0,0-.91-2C283.58,4.64,283.26,4.19,282.92,3.67Zm4.86,5.66s0-.06,0-.07a16.6,16.6,0,0,0-2.06-1.35c-.16-.1-.15,0-.15.14a2.7,2.7,0,0,1-.07.69,8.62,8.62,0,0,1-1.61,2.8c-.78,1-1.79,1.83-2.62,2.81a10.42,10.42,0,0,0-.87,1,5.38,5.38,0,0,0-.71,1.07c-.17.5-.59.92-.8,1.43,0,.09-.05.2-.19.25a.47.47,0,0,0-.24.61,2.25,2.25,0,0,0,.73.92,3.63,3.63,0,0,0,.85.54,9.94,9.94,0,0,1,1.1.6,6.34,6.34,0,0,1,1.37.83,9.2,9.2,0,0,1,1.1.85A4.27,4.27,0,0,0,285.42,24s.08.05.07.06c-.08.28.19.37.32.47.35.25.41.76.84.94.08,0,.13.12.23.06a.22.22,0,0,0,.09-.26,1.59,1.59,0,0,0-.26-.63A7.34,7.34,0,0,0,285.19,23a18.11,18.11,0,0,1-1.41-1.36,4.18,4.18,0,0,1-1.3-2.92A7.75,7.75,0,0,1,283,16a20.5,20.5,0,0,1,2.84-5.27A3.06,3.06,0,0,1,287.78,9.33ZM268.91,4.9a1.3,1.3,0,0,1-.12,1.32.17.17,0,0,0,0,.12c0,.06.07.13.1.1.26-.23.43,0,.61.11a1.57,1.57,0,0,1,.91,1.26.38.38,0,0,1-.22.43,8.82,8.82,0,0,1-.86.31c-.12,0-.21,0-.29-.1a2,2,0,0,1-.3-.35.59.59,0,0,0-.53-.26c-.31,0-.53.22-.81.3s-.44,0-.48.21-.27.66-.34,1a4.42,4.42,0,0,1-.12,1,2,2,0,0,0-.13.89c0,.23,0,.46.06.68a11.61,11.61,0,0,0,.12,1.95,9.24,9.24,0,0,1,.22,1.82,1.55,1.55,0,0,0,.12.47c0,.07.11.17.17.1s.3-.15.44-.25.17-.49.38-.69a2.23,2.23,0,0,0,.61-.82,4.39,4.39,0,0,1,.48-1A15.74,15.74,0,0,1,271,10.83c.14-.16.37-.23.48-.4a3.59,3.59,0,0,1,1.67-1.28,2.21,2.21,0,0,0,.63-.41.69.69,0,0,0-.09-1.06c-.81-.53-1.63-1-2.49-1.51a18.48,18.48,0,0,0-1.71-.89C269.25,5.2,269.2,5,268.91,4.9Zm22.61,28.64c.24,0,.56,0,.87-.1a21.43,21.43,0,0,0,2.51-.5,5.49,5.49,0,0,0,1.74-.66c.16-.12.24-.22,0-.37s-.34-.18-.3-.32a1.44,1.44,0,0,1,.45-.92.88.88,0,0,0,.39-.84.27.27,0,0,0-.22-.29c-.12,0-.26,0-.34.12s-.21.19-.38.21a4.05,4.05,0,0,0-1.17.27,4.23,4.23,0,0,1-1.65.37.84.84,0,0,0-.61.21.76.76,0,0,1-.46.25,8.62,8.62,0,0,1-1.6,0,5.52,5.52,0,0,1-1.66-.21,7.71,7.71,0,0,0-1.08-.25,13,13,0,0,1-1.89-.9,7.54,7.54,0,0,1-1.51-1.15,6.52,6.52,0,0,1-1.23-1.57c-.06-.09-.13-.19-.26-.15s-.07.18,0,.28a6.56,6.56,0,0,0,.68,1.38A7.71,7.71,0,0,0,285,30.23a14.81,14.81,0,0,0,3.86,2.65A6.5,6.5,0,0,0,291.52,33.54Zm-2.4-19.93c.05-.31-.12-.31-.33-.26a1.67,1.67,0,0,0-1,.74,5,5,0,0,1-.85,1,1,1,0,0,1-.68.29c-.27,0-.41.21-.25.43s.2.73.29,1.09a6.27,6.27,0,0,0,.37,1.21c.19.39.58.65.76,1.06.09.2.26.39.36.61,0,.07.08.21.19.19s.27.12.33.27a3.23,3.23,0,0,0,.42.8,2.78,2.78,0,0,1,.46.8c.09.3,0,.64.25.9,0,0,0,.13,0,.19a1.8,1.8,0,0,0,.25,1.22c.09.17.19.16.29,0a2.63,2.63,0,0,1,.5-.5,3.33,3.33,0,0,0,1.13-2.72,5.93,5.93,0,0,0-1.24-3.16,4.52,4.52,0,0,1-.85-1.32A11.75,11.75,0,0,1,289.12,13.61Zm15,20.4c0-.18-.06-.32-.07-.46a.63.63,0,0,0-.85-.56,4.61,4.61,0,0,1-.51.22,3.4,3.4,0,0,0-1.28.79,3.11,3.11,0,0,0-1,1.09c0,.06-.11.1-.17.15a.73.73,0,0,0-.26.29,4.79,4.79,0,0,1-.82,1.35A.88.88,0,0,0,299,37c-.16.34,0,.86-.55,1,0,0,0,.12,0,.18s.12.46-.22.53c-.05,0,0,.1,0,.14s0,.15,0,.23a1.86,1.86,0,0,0,0,1.07c.11.34.12.7.21,1s0,.3.28.17.61,0,.57.39c0,.19,0,.22.22.18a8.1,8.1,0,0,0,1.94-.67,6.13,6.13,0,0,1,1.64-.19c.14,0,.3.13.46.17a.29.29,0,0,0,.36-.21c0-.15-.14-.29-.24-.28-.27,0-.34-.16-.43-.32s-.24-.24-.48-.15a3.14,3.14,0,0,1-2,.31c-.27-.07-.38-.19-.28-.45a3.59,3.59,0,0,1,.61-1.08l.81-1a3.36,3.36,0,0,1,.35-.57,3.29,3.29,0,0,0,.62-.87,6.72,6.72,0,0,1,.42-.74A4.25,4.25,0,0,0,304.13,34Zm-8.64-19.25a.35.35,0,0,0,0,.36,4.52,4.52,0,0,1,.25,1.78,8.67,8.67,0,0,1-.14,2.16c-.13.54,0,1.11-.2,1.63a11.62,11.62,0,0,1-1.14,2.45,9.85,9.85,0,0,1-.92,1.11,14,14,0,0,1-1.82,1.46.36.36,0,0,1-.26.13,2.12,2.12,0,0,0-1.07.32,2.33,2.33,0,0,0-1.42,1.36c-.07.22,0,.31.17.38a1.29,1.29,0,0,0,1.16-.11L292,26.71a9,9,0,0,0,2.44-2,22.41,22.41,0,0,0,2.07-3.23,5.64,5.64,0,0,0,.8-3.2A5.28,5.28,0,0,0,295.49,14.76ZM285,14.38c0-.21-.08-.38-.18-.4s-.26.07-.34.2a11.25,11.25,0,0,0-1.27,2.55,4.2,4.2,0,0,0-.17,2.45,5.61,5.61,0,0,0,1.41,2.24c.81.82,1.69,1.58,2.48,2.43.08.09.09.29.27.23a.31.31,0,0,0,.09-.26,6.44,6.44,0,0,1-.05-1.24c0-.73-.62-1.28-.64-2,0,0-.06-.06-.09-.09a1.61,1.61,0,0,1-.5-.77.83.83,0,0,0-.36-.55c-.17-.14-.48-.19-.26-.52,0,0,0-.06,0-.09a3.55,3.55,0,0,1-.43-2.36c0-.26-.12-.5,0-.75S284.86,14.7,285,14.38Zm10.05,3.71h.09c.07-.44.14-.88.2-1.33a8.07,8.07,0,0,0-.07-1,2.49,2.49,0,0,0-.55-1.58A24.78,24.78,0,0,0,292,11.14a5.8,5.8,0,0,0-1.75-1c0,.23.13.28.28.34a4.94,4.94,0,0,1,1.06.63c.2.12.44.3.49.5a1.26,1.26,0,0,0,.51.66,2.18,2.18,0,0,1,.33.42,1.83,1.83,0,0,1,.48.8s.07.05.11.08a3,3,0,0,1,.75,1.13,5.27,5.27,0,0,0,.31.74,1.69,1.69,0,0,1,.19.38,2.31,2.31,0,0,0,.29,1.12c.07.09,0,.19,0,.29A.92.92,0,0,0,295.06,18.09Zm-5.8-8.22-.1-.07a.72.72,0,0,0-.25-.07,2.5,2.5,0,0,0-2.21.85,8.11,8.11,0,0,0-1.18,2,2.15,2.15,0,0,0-.24,1.36.64.64,0,0,0,.53.52c.23,0,.47.06.63-.2-.17-.09-.33.12-.48,0,0-.12.26-.07.19-.25-.11,0-.19.07-.28.09s-.13-.06-.11-.07c.23-.1.08-.44.34-.52s.18-.16,0-.26-.16,0-.16-.15.3-.17.2-.32,0-.31.11-.36a.82.82,0,0,0,.32-.35c.18-.26.13-.62.4-.84s.34-.56.72-.67c.11,0,.26-.25.45-.26A7.84,7.84,0,0,0,289.26,9.87ZM310.1,35.19a7.82,7.82,0,0,0-.21-2.36,2.78,2.78,0,0,0-1.66-1.92,6.65,6.65,0,0,0-2.33-.45,3.53,3.53,0,0,0-1.63.25c.1.12.22.05.32.08a10.49,10.49,0,0,0,1.27.15,14.17,14.17,0,0,0,1.47.3,1.26,1.26,0,0,1,.94.4c.15.2.49.22.59.51,0,0,.11,0,.15,0s.2,0,.15.16,0,.25.16.25c.32,0,.31.25.32.46s0,.16,0,.25A6.56,6.56,0,0,1,310.1,35.19ZM291.65,13.7a4.54,4.54,0,0,1-.38-.44,1.32,1.32,0,0,0-.42-.36c-.56-.35-1-.15-1.09.49a5.5,5.5,0,0,0,.35,2.6,1.14,1.14,0,0,0,.48.64,5.31,5.31,0,0,0-.25-.8,3.1,3.1,0,0,1,.3-1.65l.07-.07A1.62,1.62,0,0,1,291.65,13.7Zm-15,7.23a22.64,22.64,0,0,1,2.6,1.56c.19.13.35-.07.5-.16s0-.15,0-.16c-.37-.06-.24-.46-.44-.63,0,0,0-.07,0-.09.29-.22,0-.23-.12-.28s-.41-.13-.61-.21A2.87,2.87,0,0,0,276.61,20.93Zm7.2,21.26a.25.25,0,0,0,.24-.09c.06-.09,0-.15,0-.23-.08-.25-.34-.26-.49-.4a5.71,5.71,0,0,0-2.18-1.3.17.17,0,0,0-.23.07c-.14.21,0,.63.28.62a1.25,1.25,0,0,1,1,.4c.08.08.16.24.33.17a.22.22,0,0,1,.3.12c.15.24.46.32.6.57C283.64,42.19,283.74,42.19,283.81,42.19ZM290.1,10.1c-.25,0-.39-.19-.6-.17,0,0-.06.07,0,.1A.58.58,0,0,0,290.1,10.1Z"/><path class="cls-3" d="M293.74,49.44a1.48,1.48,0,0,1-.77.49c-.73.28-1.43.6-2.13.91-.17.07-.3.14-.48,0s-.46,0-.67.1-.27.07-.22-.15-.1-.17-.21-.16a2.63,2.63,0,0,0-.86.28A1.24,1.24,0,0,1,288,51c-3.23,0-6.46,0-9.69,0a4.74,4.74,0,0,1-2.51-.58,1.57,1.57,0,0,0-.52-.08A9.14,9.14,0,0,0,273.9,50a.46.46,0,0,1-.36-.32c-.09-.3-.33-.3-.56-.33a.65.65,0,0,1-.44-.18.34.34,0,0,0-.27-.09c-.32.06-.52-.19-.79-.27a.16.16,0,0,1-.1-.22c.13-.3-.12-.34-.28-.33a.77.77,0,0,1-.6-.27,4.86,4.86,0,0,0-.58-.53c-.23-.15-.15-.42-.19-.64s-.05-.38-.33-.39a.2.2,0,0,1-.2-.22c0-.3-.09-.62.14-.88s.09-.36.14-.54a2.25,2.25,0,0,0,.23-1.19c-.13-.5-.08-1-.2-1.51a2.84,2.84,0,0,0-.78-1.46c-.33-.28-.24-.77-.63-1,0,0,0-.15,0-.22,0-.34,0-.68,0-1,0-.18,0-.37-.14-.51s-.05-.21,0-.32a1.2,1.2,0,0,0-.06-.89c-.05-.09,0-.19.13-.21a11.63,11.63,0,0,1,2.21-.17c.5,0,1,0,1.5,0a14.16,14.16,0,0,1,3.76.85,17.11,17.11,0,0,1,2.05.92,7.2,7.2,0,0,1,1.88,1.68c.75.84,1.53,1.66,2.33,2.45.65.64,1.29,1.29,2,1.9.82.75,1.7,1.42,2.52,2.15a22.18,22.18,0,0,0,1.93,1.58A10.36,10.36,0,0,0,290,48.9a7,7,0,0,0,2.8.54Z"/><path class="cls-3" d="M265.3,4.61a.76.76,0,0,1-.18.78,1.47,1.47,0,0,0-.21.65c-.07.31-.12.64-.18,1a.53.53,0,0,0,0,.41c0,.06.09.11,0,.17s-.13.09-.2,0-.09-.07-.14,0,0,.1,0,.15c.13.3.19.58-.14.83-.11.08-.06.27,0,.41a1,1,0,0,1-.09.93,2.16,2.16,0,0,0-.14,1.35,4.09,4.09,0,0,1-.12,1.32,12.25,12.25,0,0,0-.15,1.46,4.83,4.83,0,0,0,0,1.42c.19,1,.05,2.12.26,3.15.15.75.21,1.5.33,2.25.07.39.29.78.16,1.17a1.28,1.28,0,0,0,0,.86c.25.71.1,1.48.28,2.18s.11,1.54.31,2.28a13,13,0,0,1,.4,3,5.94,5.94,0,0,1,.12.86,1,1,0,0,1-.09.48.28.28,0,0,0,0,.19c.22.48,0,1,0,1.44a.45.45,0,0,0,.05.26c.12.17.16.3-.06.44s-.05.23.05.34.18.12.11.24a.15.15,0,0,1-.11.06.21.21,0,0,1-.19-.19,6.24,6.24,0,0,0-.3-.86,12.59,12.59,0,0,0-.74-1.91c-.34-.77-.66-1.55-1.05-2.29-.57-1.07-1-2.21-1.64-3.25A33.33,33.33,0,0,1,260,23a19.56,19.56,0,0,1-1.26-3.32,12.16,12.16,0,0,1-.5-3.06,21.05,21.05,0,0,1,.53-5.54,17.56,17.56,0,0,1,.88-2.32c.7-1.78,2-3.14,3-4.73a18.72,18.72,0,0,1,1.22-1.87,3.28,3.28,0,0,1,.71-.63.79.79,0,0,1,1.16.54c0,.21,0,.59.39.6.09,0,.14.13,0,.21a.77.77,0,0,0-.33.68,4,4,0,0,1-.26,1C265.53,4.81,265.43,4.55,265.3,4.61Z"/><path class="cls-3" d="M297.07,37.64a.46.46,0,0,1-.35.36,5.21,5.21,0,0,1-1.84.24c-1,0-1.94,0-2.9,0a.54.54,0,0,0-.45.16.6.6,0,0,1-.48.16.88.88,0,0,0-.52.25c-.09.06-.13.12,0,.2s0,.23-.11.26a4.49,4.49,0,0,0-.89.32.49.49,0,0,1-.25.08c-.52,0-1,.22-1.52.15-.29,0-.57-.12-.86-.19l-.18-.06a2,2,0,0,1-.94-.46,7.91,7.91,0,0,0-1.65-.94.81.81,0,0,1-.24-.17c-.32-.37-.82-.49-1.15-.82a11.2,11.2,0,0,1-1-.91c-.3-.4-.85-.49-1.11-.88s-.77-.32-1-.62a3.4,3.4,0,0,0-1.45-.85,10.57,10.57,0,0,0-2.53-.83c-.19,0-.37-.19-.56-.25-.4-.13-.78-.27-1.17-.43a1.27,1.27,0,0,0-1.53.32c-.24.27-.59.46-.69.86a.16.16,0,0,1-.1.08c-.07,0-.08-.06-.09-.11a2.68,2.68,0,0,1-.2-.88,9.4,9.4,0,0,0,0-1.3,10.29,10.29,0,0,1,.65-3.56,3.68,3.68,0,0,1,.31-.86c.07-.13.11-.19.26-.07a23.92,23.92,0,0,0,6.39,3.72c1.24.51,2.54.88,3.77,1.44a9.33,9.33,0,0,1,1.69,1,11.64,11.64,0,0,0,3.09,1.5,16.07,16.07,0,0,0,4.56.81,25.17,25.17,0,0,0,3.13,0,12.72,12.72,0,0,0,4-.79c.08,0,.17-.09.24,0s0,.14,0,.21A11.43,11.43,0,0,1,298,37.57c-.16.24-.42.33-.62.5S297.17,38.08,297.07,37.64Z"/><path class="cls-3" d="M258.34,20.77c.26.81.78,1.45,1,2.22.2.61.48,1.19.65,1.81a6.79,6.79,0,0,0,.44.9,2.18,2.18,0,0,1,.21.7c0,.14,0,.3.12.37.32.23.29.61.4.93a1.07,1.07,0,0,0,.22.32c.26.3.21.71.37,1,0,.11.06.27.17.31.29.14.29.44.35.66a16,16,0,0,0,.89,2.46c.1.2,0,.45.18.64a2.23,2.23,0,0,1,.33,1,3.09,3.09,0,0,0,.36.91,2.23,2.23,0,0,1,.17.71c.1.52,0,1.12.41,1.55.09.09.06.21.05.32a5.91,5.91,0,0,0,.26,2.13c0,.09,0,.2.11.23.38.14.25.47.31.74a2.91,2.91,0,0,0,.5,1.19c0,.06.15.08.14.17-.06.34.23.49.36.73a1.3,1.3,0,0,1,.2,1,10.31,10.31,0,0,1-1.43,2.38c-.06.1-.21.15-.28.06s-.4-.11-.33-.29a1.28,1.28,0,0,0,0-.75,7.6,7.6,0,0,1,0-1.17,2.75,2.75,0,0,0-.18-.86,1.37,1.37,0,0,0-.78-.8A6.17,6.17,0,0,1,262,41.3a3.67,3.67,0,0,1-.71-.71s0-.07-.07-.07c-.43-.08-.54-.46-.71-.78a1.43,1.43,0,0,0-.35-.3c-.29-.24-.32-.66-.6-.92a4.67,4.67,0,0,1-.91-1.31A11.64,11.64,0,0,1,258,36a3.36,3.36,0,0,0-.51-1,2.29,2.29,0,0,1-.29-.82,13.38,13.38,0,0,0-.56-1.49s-.07-.08-.06-.11a4,4,0,0,0-.28-1.23,10.41,10.41,0,0,1-.16-3c0-.57.18-1.11.25-1.67a16.24,16.24,0,0,1,.39-1.64,9.3,9.3,0,0,0,.31-1c.13-1,.82-1.73,1.05-2.66C258.15,21.16,258.11,20.93,258.34,20.77Z"/><path class="cls-3" d="M277.27,58.34,276,58.26a11.87,11.87,0,0,1-2.23-.42,25.89,25.89,0,0,0-2.6-.3c-.72-.12-1.44,0-2.16-.07a5.68,5.68,0,0,1-2.23-.4s-.12-.06-.16,0c-.29.18-.48-.05-.72-.15-.52-.23-1.07-.38-1.59-.59s-1-.19-1.22-.7c-.07-.14-.26-.15-.39-.23a21,21,0,0,1-2.1-1.5,2,2,0,0,1-.63-1,.63.63,0,0,0-.2-.32,4.71,4.71,0,0,1-1.27-3.1c0-.68-.14-1.35-.17-2s0-1.47,0-2.2.36-1.18.39-1.8a.62.62,0,0,1,.1-.24c0-.08,0-.23.16-.2s0,.15,0,.23.13.2.27.18a.69.69,0,0,1,.81.41,2.84,2.84,0,0,0,.51.53c.14.13.37.21.17.46a.1.1,0,0,0,0,.16c.22.09.25.3.35.47s.08.22.23.23.09,0,.09,0c0,.39.45.45.56.76s.26.08.33.23c.17.36.51.57.73.9a3.42,3.42,0,0,0,.74.73,7.57,7.57,0,0,0,1.2.93,12.74,12.74,0,0,0,1.67,1.11c.26.1.43.43.68.63s.86.52,1.26.83.67.51,1,.75c.64.43,1.17,1,1.77,1.46a2.63,2.63,0,0,0,.9.45,7.27,7.27,0,0,1,1.33.76s0,0,0,0c.54-.1.77.43,1.15.62a4.14,4.14,0,0,1,1.26,1l1.05,1.25A.49.49,0,0,1,277.27,58.34Z"/><path class="cls-3" d="M268.27,17.8c.08-.37.05-.78.37-1.07a.07.07,0,0,0,0-.05c-.14-.41.38-.52.39-.87,0-.16.23-.13.27-.3.08-.4.39-.67.56-1a1,1,0,0,1,.31-.37c.25-.16.31-.46.54-.63.08-.07.12-.18.26-.17s.14,0,.12-.07c-.07-.46.36-.57.57-.81a22,22,0,0,1,4.65-3.72,18.63,18.63,0,0,1,2.34-1.34,12.15,12.15,0,0,1,1.63-.72,1.85,1.85,0,0,1-.55.92c-.58.53-1.19,1-1.79,1.54a20.35,20.35,0,0,0-2,2,12.41,12.41,0,0,0-1.36,1.79,10.14,10.14,0,0,0-.43,1.16,4.86,4.86,0,0,0-.25,2.8,6.48,6.48,0,0,1,.07,1.4c0,.41,0,.84,0,1.26a7.55,7.55,0,0,1-1.35,3.95,7.2,7.2,0,0,0-.79,1.77,18,18,0,0,0-1.1,3.8c-.07.47-.13.95-.21,1.42a17.64,17.64,0,0,0-.11,2.51c0,.07,0,.15-.07.17s-.09,0-.13-.07a.47.47,0,0,1-.2-.29,1.19,1.19,0,0,0-.35-.65.69.69,0,0,1-.24-.52c0-.19-.1-.25-.25-.28-.85-.13-.86-.13-.93-.93-.09-1-.34-2-.47-3.06a12.14,12.14,0,0,1-.26-2.17c0-.44-.17-.86-.13-1.3.09-.91.18-1.82.29-2.73a16.17,16.17,0,0,1,.32-1.95,3.64,3.64,0,0,1,.2-.88.9.9,0,0,0,0-.36h0s.1,0,.1-.05-.05-.07-.1-.08Z"/><path class="cls-3" d="M255.24,38.13a1.47,1.47,0,0,1-.8-.36c-.71-.46-1.39-1-2.06-1.49a15.58,15.58,0,0,1-3-3.08A13.45,13.45,0,0,1,247,28a10.94,10.94,0,0,1-.2-3.52,8,8,0,0,1,1-3.29,3.69,3.69,0,0,1,4-1.81,5.64,5.64,0,0,1,1.87.56,4.89,4.89,0,0,1,2.14,1.67,2.28,2.28,0,0,1,.16,1.52c0,.12-.06.22-.2.21s-.07-.13-.07-.21a2.07,2.07,0,0,0-.84-.89c-.16,0-.2.13-.25.22a8.24,8.24,0,0,1-.74,1.11.59.59,0,0,0-.1.17c-.18.45-.49.84-.7,1.27a5.91,5.91,0,0,0-.75,2.27,10.55,10.55,0,0,0,.14,2.11,12.76,12.76,0,0,1,.19,1.84,5.79,5.79,0,0,0,.28,1.61c.15.54.32,1.07.47,1.6a4,4,0,0,0,.3.58c.26.63.48,1.28.79,1.88A4,4,0,0,0,255.24,38.13Z"/><path class="cls-3" d="M289.5,55.73c.4,0,.71-.09,1-.09a11.61,11.61,0,0,0,1.86-.19c.22,0,.41-.12.42-.38s-.2-.33-.42-.37l-.25-.05c-.07,0-.18,0-.17-.1s.11-.1.19-.1c.64,0,1.26-.12,1.9-.14a1.06,1.06,0,0,0,.83-.37,1,1,0,0,1,1.23-.1l.18.09c.43.25.53.21.7-.26a2.49,2.49,0,0,0,.15-.73c0-.28.19-.53.21-.83,0-.62.12-1.24.11-1.87a.21.21,0,0,1,.1-.2,5,5,0,0,1,.08,1.07,14.12,14.12,0,0,1-.28,4,6.52,6.52,0,0,1-3.26,4.18,10.47,10.47,0,0,1-3.8,1.18,18.24,18.24,0,0,1-3.54.09,15.2,15.2,0,0,1-5.17-1.26,16.44,16.44,0,0,1-3.35-1.88c-.76-.57-1.51-1.17-2.23-1.81s-1.45-1.22-2.12-1.9c-.09-.09-.27-.17-.19-.34s.24-.09.36-.09h.56c.15,0,.27,0,.32.18s.2.2.32.05a.27.27,0,0,1,.3-.09c.15.05,0,.16,0,.25s0,.24.19.15.49,0,.68.13a1.73,1.73,0,0,0,1,.45.21.21,0,0,1,.12,0c.27.31.74.26,1,.59a.24.24,0,0,0,.17.09c.43-.14.67.2,1,.39.06,0,.11.1.17.05.24-.18.4,0,.59.1a8,8,0,0,0,2.4.87c.38.06.75.11,1.13.19,0,0,.12,0,.14.07.15.33.45.23.71.26.51,0,1,.12,1.52.21a2.84,2.84,0,0,0,2.11-.25,2.63,2.63,0,0,1,.93-.35c.28,0,.35-.2.41-.39a.35.35,0,0,0-.17-.45Z"/><path class="cls-3" d="M291.91,34.69a13,13,0,0,1-1.65-.17c-.3-.07-.68-.05-.9-.38A.37.37,0,0,0,289,34c-.41.1-.65-.18-.91-.38a.54.54,0,0,0-.63-.09c-.09,0-.22.06-.21,0,0-.36-.26-.25-.42-.28s-.34,0-.35-.28-.14-.11-.24-.07-.25.13-.29-.1c0-.08-.08-.09-.15-.09l-.12,0c-.09-.35-.41-.15-.61-.24a16.48,16.48,0,0,0-2-1.06,1.07,1.07,0,0,1-.69-.45c-.09-.17-.35-.14-.53-.19-.5-.14-.87-.54-1.38-.65a2.24,2.24,0,0,0-.37-.1.36.36,0,0,1-.35-.21c0-.09-.08-.18-.21-.18A3.3,3.3,0,0,1,278,29c-.07,0-.12-.1-.19-.13a12.32,12.32,0,0,1-1.8-.94,4.1,4.1,0,0,0-.5-.14c-.41-.1-.57-.52-.9-.73-.13-.08-.2-.25-.34-.31a.74.74,0,0,1-.44-.87,4.35,4.35,0,0,1,.4-1.36c.22-.51.64-1,.53-1.61,0,0,0-.08,0-.09.35-.31.34-.84.71-1.15s.44-.44.94-.14,1.31.65,1.93,1a10,10,0,0,1,2,1.84,15,15,0,0,1,1.56,2,7.46,7.46,0,0,1,.45.84,12.29,12.29,0,0,0,6.22,5.92,7.89,7.89,0,0,0,3.73.76,2.55,2.55,0,0,0,.67-.12c.17-.05.23,0,.22.18s0,.22,0,.32a.3.3,0,0,1-.3.33C292.54,34.59,292.24,34.74,291.91,34.69Z"/><path class="cls-3" d="M303.43,24.37a6.55,6.55,0,0,0-.65-1.36,9.14,9.14,0,0,0-2.84-2.59c-.19-.12-.42-.27-.6,0s0,.43.25.62a11.42,11.42,0,0,1,3.08,3,4.8,4.8,0,0,1,.77,2.51,6.34,6.34,0,0,1-.26,2.37,5.35,5.35,0,0,1-.88,1.71.39.39,0,0,1-.19.17.18.18,0,0,1-.19,0c-.06-.06,0-.12,0-.18a1.19,1.19,0,0,0,.08-1,11.64,11.64,0,0,1-.23-1.29.94.94,0,0,1,.29-.91.26.26,0,0,0,.07-.28c-.07-.49.1-1,0-1.46s-.05-1-.44-1.5-.46-.76-.72-1.13a4.82,4.82,0,0,0-1-.9c-.29-.21-.71-.29-.89-.71a.86.86,0,0,0-.64-.46,1,1,0,0,1-.34-.11c-.54-.22-.61-.41-.38-.94a3.28,3.28,0,0,0,.05-2.25,8.55,8.55,0,0,0-1-2.26c-.14-.22-.29-.45,0-.7s.3-.2.36.08.1.15.21.14.11-.1.09-.2.06-.23.19-.25a.39.39,0,0,0,.35-.34.38.38,0,0,1,.44-.26c.19,0,.41-.1.52.2s1,.5,1.26.34c.07,0,.14-.14.07-.18s-.16-.42-.38-.52a.23.23,0,0,1-.17-.25c0-.15.14-.11.23-.12s.12,0,.12-.08a.17.17,0,0,0-.07-.1c-.13-.1-.38-.29-.3-.35s.33.12.46.24a12.71,12.71,0,0,1,2.64,3.2,11.1,11.1,0,0,1,1.35,3.31,7,7,0,0,1-.39,4.5A.79.79,0,0,1,303.43,24.37Z"/><path class="cls-3" d="M282.92,3.67c.34.52.66,1,.95,1.45a5.36,5.36,0,0,1,.91,2,1.16,1.16,0,0,1-.28,1.13c-.41.4-.88.72-1.29,1.11a6.15,6.15,0,0,0-1,1.29A12.57,12.57,0,0,1,281,12.25a6.12,6.12,0,0,0-.53.7,2.5,2.5,0,0,1-.91,1.08.57.57,0,0,0-.27.28c-.37.77-1.13,1.21-1.64,1.86-.2.25-.5.42-.54.78,0,.09-.1.11-.16.15a2.56,2.56,0,0,0-.94,1.07c0,.07-.07.16-.14.17a2.67,2.67,0,0,0-.61.24c-.13.06-.3.05-.31-.2-.05-.92-.08-1.84-.15-2.75a3.81,3.81,0,0,1,.84-2.59,20.27,20.27,0,0,1,2.9-3,16.38,16.38,0,0,0,4-5A6.29,6.29,0,0,0,282.92,3.67Z"/><path class="cls-3" d="M287.78,9.33a3.06,3.06,0,0,0-1.95,1.43A20.5,20.5,0,0,0,283,16a7.75,7.75,0,0,0-.51,2.7,4.18,4.18,0,0,0,1.3,2.92A18.11,18.11,0,0,0,285.19,23a7.34,7.34,0,0,1,1.52,1.58,1.59,1.59,0,0,1,.26.63.22.22,0,0,1-.09.26c-.1.06-.15,0-.23-.06-.43-.18-.49-.69-.84-.94-.13-.1-.4-.19-.32-.47,0,0,0-.05-.07-.06a4.27,4.27,0,0,1-1.83-1.46,9.2,9.2,0,0,0-1.1-.85,6.34,6.34,0,0,0-1.37-.83,9.94,9.94,0,0,0-1.1-.6,3.63,3.63,0,0,1-.85-.54,2.25,2.25,0,0,1-.73-.92.47.47,0,0,1,.24-.61c.14-.05.16-.16.19-.25.21-.51.63-.93.8-1.43a5.38,5.38,0,0,1,.71-1.07,10.42,10.42,0,0,1,.87-1c.83-1,1.84-1.79,2.62-2.81a8.62,8.62,0,0,0,1.61-2.8,2.7,2.7,0,0,0,.07-.69c0-.09,0-.24.15-.14a16.6,16.6,0,0,1,2.06,1.35S287.77,9.3,287.78,9.33Z"/><path class="cls-3" d="M268.91,4.9c.29,0,.34.3.54.38a18.48,18.48,0,0,1,1.71.89c.86.46,1.68,1,2.49,1.51a.69.69,0,0,1,.09,1.06,2.21,2.21,0,0,1-.63.41,3.59,3.59,0,0,0-1.67,1.28c-.11.17-.34.24-.48.4a15.74,15.74,0,0,0-2.07,2.72,4.39,4.39,0,0,0-.48,1,2.23,2.23,0,0,1-.61.82c-.21.2-.13.51-.38.69s-.32.12-.44.25-.14,0-.17-.1a1.55,1.55,0,0,1-.12-.47,9.24,9.24,0,0,0-.22-1.82,11.61,11.61,0,0,1-.12-1.95c0-.22-.05-.45-.06-.68a2,2,0,0,1,.13-.89,4.42,4.42,0,0,0,.12-1c.07-.35.27-.65.34-1s.31-.17.48-.21.5-.3.81-.3a.59.59,0,0,1,.53.26,2,2,0,0,0,.3.35c.08.08.17.15.29.1a8.82,8.82,0,0,0,.86-.31.38.38,0,0,0,.22-.43,1.57,1.57,0,0,0-.91-1.26c-.18-.09-.35-.34-.61-.11,0,0-.1,0-.1-.1a.17.17,0,0,1,0-.12A1.3,1.3,0,0,0,268.91,4.9Z"/><path class="cls-3" d="M291.52,33.54a6.5,6.5,0,0,1-2.62-.66A14.81,14.81,0,0,1,285,30.23a7.71,7.71,0,0,1-1.26-1.79,6.56,6.56,0,0,1-.68-1.38c0-.1-.11-.22,0-.28s.2.06.26.15a6.52,6.52,0,0,0,1.23,1.57,7.54,7.54,0,0,0,1.51,1.15,13,13,0,0,0,1.89.9,7.71,7.71,0,0,1,1.08.25,5.52,5.52,0,0,0,1.66.21,8.62,8.62,0,0,0,1.6,0,.76.76,0,0,0,.46-.25.84.84,0,0,1,.61-.21,4.23,4.23,0,0,0,1.65-.37,4.05,4.05,0,0,1,1.17-.27c.17,0,.31-.05.38-.21s.22-.14.34-.12a.27.27,0,0,1,.22.29.88.88,0,0,1-.39.84,1.44,1.44,0,0,0-.45.92c0,.14.18.23.3.32s.14.25,0,.37a5.49,5.49,0,0,1-1.74.66,21.43,21.43,0,0,1-2.51.5C292.08,33.49,291.76,33.51,291.52,33.54Z"/><path class="cls-3" d="M289.12,13.61a11.75,11.75,0,0,0,.43,2.83,4.52,4.52,0,0,0,.85,1.32,5.93,5.93,0,0,1,1.24,3.16,3.33,3.33,0,0,1-1.13,2.72,2.63,2.63,0,0,0-.5.5c-.1.15-.2.16-.29,0a1.8,1.8,0,0,1-.25-1.22c0-.06,0-.15,0-.19-.25-.26-.16-.6-.25-.9a2.78,2.78,0,0,0-.46-.8,3.23,3.23,0,0,1-.42-.8c-.06-.15-.08-.33-.33-.27s-.15-.12-.19-.19c-.1-.22-.27-.41-.36-.61-.18-.41-.57-.67-.76-1.06a6.27,6.27,0,0,1-.37-1.21c-.09-.36,0-.76-.29-1.09s0-.43.25-.43a1,1,0,0,0,.68-.29,5,5,0,0,0,.85-1,1.67,1.67,0,0,1,1-.74C289,13.3,289.17,13.3,289.12,13.61Z"/><path class="cls-3" d="M304.13,34a4.25,4.25,0,0,1-.79,1.89,6.72,6.72,0,0,0-.42.74,3.29,3.29,0,0,1-.62.87,3.36,3.36,0,0,0-.35.57l-.81,1a3.59,3.59,0,0,0-.61,1.08c-.1.26,0,.38.28.45a3.14,3.14,0,0,0,2-.31c.24-.09.36-.06.48.15s.16.35.43.32c.1,0,.28.13.24.28a.29.29,0,0,1-.36.21c-.16,0-.32-.19-.46-.17a6.13,6.13,0,0,0-1.64.19,8.1,8.1,0,0,1-1.94.67c-.18,0-.24,0-.22-.18,0-.4-.21-.59-.57-.39s-.21.1-.28-.17-.1-.7-.21-1a1.86,1.86,0,0,1,0-1.07c0-.08.08-.15,0-.23s-.05-.13,0-.14c.34-.07.19-.33.22-.53s0-.17,0-.18c.54-.13.39-.65.55-1a.88.88,0,0,1,.12-.15,4.79,4.79,0,0,0,.82-1.35.73.73,0,0,1,.26-.29c.06-.05.14-.09.17-.15a3.11,3.11,0,0,1,1-1.09,3.4,3.4,0,0,1,1.28-.79,4.61,4.61,0,0,0,.51-.22.63.63,0,0,1,.85.56C304.07,33.69,304.1,33.83,304.13,34Z"/><path class="cls-3" d="M295.49,14.76a5.28,5.28,0,0,1,1.77,3.49,5.64,5.64,0,0,1-.8,3.2,22.41,22.41,0,0,1-2.07,3.23,9,9,0,0,1-2.44,2l-1.84,1.08a1.29,1.29,0,0,1-1.16.11c-.18-.07-.24-.16-.17-.38a2.33,2.33,0,0,1,1.42-1.36,2.12,2.12,0,0,1,1.07-.32.36.36,0,0,0,.26-.13,14,14,0,0,0,1.82-1.46,9.85,9.85,0,0,0,.92-1.11,11.62,11.62,0,0,0,1.14-2.45c.17-.52.07-1.09.2-1.63a8.67,8.67,0,0,0,.14-2.16,4.52,4.52,0,0,0-.25-1.78A.35.35,0,0,1,295.49,14.76Z"/><path class="cls-3" d="M285,14.38c-.15.32,0,.7-.12,1.06s.05.49,0,.75a3.55,3.55,0,0,0,.43,2.36s.05.07,0,.09c-.22.33.09.38.26.52a.83.83,0,0,1,.36.55,1.61,1.61,0,0,0,.5.77s.09.06.09.09c0,.73.61,1.28.64,2a6.44,6.44,0,0,0,.05,1.24.31.31,0,0,1-.09.26c-.18.06-.19-.14-.27-.23-.79-.85-1.67-1.61-2.48-2.43a5.61,5.61,0,0,1-1.41-2.24,4.2,4.2,0,0,1,.17-2.45,11.25,11.25,0,0,1,1.27-2.55c.08-.13.17-.23.34-.2S285,14.17,285,14.38Z"/><path class="cls-3" d="M295.06,18.09a.92.92,0,0,1,0-.84c0-.1.09-.2,0-.29a2.31,2.31,0,0,1-.29-1.12,1.69,1.69,0,0,0-.19-.38,5.27,5.27,0,0,1-.31-.74,3,3,0,0,0-.75-1.13s-.1-.05-.11-.08a1.83,1.83,0,0,0-.48-.8,2.18,2.18,0,0,0-.33-.42,1.26,1.26,0,0,1-.51-.66c0-.2-.29-.38-.49-.5a4.94,4.94,0,0,0-1.06-.63c-.15-.06-.29-.11-.28-.34a5.8,5.8,0,0,1,1.75,1,24.78,24.78,0,0,1,2.72,3.07,2.49,2.49,0,0,1,.55,1.58,8.07,8.07,0,0,1,.07,1c-.06.45-.13.89-.2,1.33Z"/><path class="cls-3" d="M289.26,9.87a7.84,7.84,0,0,1-1.1.36c-.19,0-.34.23-.45.26-.38.11-.47.47-.72.67s-.22.58-.4.84a.82.82,0,0,1-.32.35c-.1.05-.26.15-.11.36s-.12.22-.2.32.1.12.16.15.18.21,0,.26-.11.42-.34.52c0,0,.05.08.11.07s.17-.11.28-.09c.07.18-.17.13-.19.25.15.15.31-.06.48,0-.16.26-.4.24-.63.2a.64.64,0,0,1-.53-.52,2.15,2.15,0,0,1,.24-1.36,8.11,8.11,0,0,1,1.18-2,2.5,2.5,0,0,1,2.21-.85.72.72,0,0,1,.25.07Z"/><path class="cls-3" d="M310.1,35.19a6.56,6.56,0,0,0-.45-1.92c0-.09,0-.16,0-.25s0-.45-.32-.46c-.15,0-.22-.1-.16-.25s0-.22-.15-.16-.14,0-.15,0c-.1-.29-.44-.31-.59-.51a1.26,1.26,0,0,0-.94-.4,14.17,14.17,0,0,1-1.47-.3,10.49,10.49,0,0,1-1.27-.15c-.1,0-.22,0-.32-.08a3.53,3.53,0,0,1,1.63-.25,6.65,6.65,0,0,1,2.33.45,2.78,2.78,0,0,1,1.66,1.92A7.82,7.82,0,0,1,310.1,35.19Z"/><path class="cls-3" d="M291.65,13.7a1.62,1.62,0,0,0-.94.41l-.07.07a3.1,3.1,0,0,0-.3,1.65,5.31,5.31,0,0,1,.25.8,1.14,1.14,0,0,1-.48-.64,5.5,5.5,0,0,1-.35-2.6c.11-.64.53-.84,1.09-.49a1.32,1.32,0,0,1,.42.36A4.54,4.54,0,0,0,291.65,13.7Z"/><path class="cls-3" d="M276.61,20.93a2.87,2.87,0,0,1,1.92,0c.2.08.42.13.61.21s.41.06.12.28c0,0-.05.08,0,.09.2.17.07.57.44.63.08,0,.1.14,0,.16s-.31.29-.5.16A22.64,22.64,0,0,0,276.61,20.93Z"/><path class="cls-3" d="M283.81,42.19c-.07,0-.17,0-.21-.07-.14-.25-.45-.33-.6-.57a.22.22,0,0,0-.3-.12c-.17.07-.25-.09-.33-.17a1.25,1.25,0,0,0-1-.4c-.25,0-.42-.41-.28-.62a.17.17,0,0,1,.23-.07,5.71,5.71,0,0,1,2.18,1.3c.15.14.41.15.49.4,0,.08.1.14,0,.23A.25.25,0,0,1,283.81,42.19Z"/><path class="cls-3" d="M290.1,10.1a.58.58,0,0,1-.62-.07s0-.1,0-.1C289.71,9.91,289.85,10.06,290.1,10.1Z"/><path class="cls-3" d="M268.27,17.93s-.12,0-.1-.08.06,0,.1-.05h0v.13Z"/><path class="cls-1" d="M268.26,17.93V17.8c.05,0,.12,0,.1.08S268.3,17.92,268.26,17.93Z"/></g></g></svg>